<?xml version="1.0" standalone="no"?>
<!DOCTYPE svg PUBLIC "-//W3C//DTD SVG 20010904//EN"
 "http://www.w3.org/TR/2001/REC-SVG-20010904/DTD/svg10.dtd">
<svg version="1.0" xmlns="http://www.w3.org/2000/svg"
 width="512.000000pt" height="512.000000pt" viewBox="0 0 512.000000 512.000000"
 preserveAspectRatio="xMidYMid meet">
<metadata>
Created by potrace 1.11, written by Peter Selinger 2001-2013
</metadata>
<g transform="translate(0.000000,512.000000) scale(0.100000,-0.100000)"
fill="#000000" stroke="none">
<path d="M3270 4953 c-42 -7 -133 -45 -175 -74 -84 -56 -145 -134 -186 -234
-34 -85 -34 -242 0 -330 47 -119 126 -206 236 -260 90 -45 140 -55 246 -51 78
3 95 7 170 44 112 54 178 120 231 230 36 73 40 92 44 170 4 106 -6 156 -51
247 -78 160 -227 255 -405 260 -47 1 -96 0 -110 -2z"/>
<path d="M2935 3849 c-27 -4 -122 -16 -210 -28 -88 -12 -173 -23 -190 -25 -37
-6 -173 -23 -240 -31 -258 -31 -304 -62 -365 -250 -17 -55 -34 -107 -37 -115
-3 -8 -7 -20 -8 -25 -1 -6 -26 -82 -54 -170 -29 -88 -56 -171 -60 -185 -22
-71 11 -181 71 -237 99 -92 278 -75 353 35 14 20 57 135 96 255 53 164 75 217
87 219 9 0 22 2 27 3 56 8 116 17 145 21 19 3 45 7 58 9 12 3 22 3 22 0 0 -2
-24 -100 -54 -217 -30 -117 -85 -332 -122 -478 -83 -328 -87 -392 -28 -517 39
-81 109 -146 284 -263 85 -57 175 -118 200 -135 174 -121 396 -272 416 -283
32 -18 39 -34 54 -127 7 -44 14 -89 16 -99 2 -11 17 -101 33 -200 40 -243 39
-238 44 -261 3 -11 12 -69 22 -130 21 -128 41 -178 93 -227 50 -47 105 -67
178 -64 97 4 182 63 219 153 25 60 24 85 -20 338 -14 77 -29 169 -34 205 -6
36 -12 74 -14 85 -3 11 -10 54 -16 95 -7 41 -16 98 -22 125 -5 28 -16 93 -24
145 -23 143 -25 152 -42 189 -26 54 -63 84 -346 284 -147 103 -268 191 -271
195 -2 4 2 34 10 67 8 33 16 74 19 90 3 17 8 37 10 45 2 8 6 26 9 40 5 31 83
389 97 450 6 25 13 54 15 65 22 117 39 195 44 195 3 0 72 -103 154 -228 157
-241 185 -272 267 -292 29 -7 148 -10 344 -8 269 3 304 5 337 22 81 39 131
117 134 204 4 102 -46 185 -137 230 -38 19 -61 21 -263 21 -217 1 -221 2 -240
24 -29 36 -246 368 -246 378 0 5 -4 9 -8 9 -5 0 -19 18 -33 41 -40 67 -42 71
-96 150 -87 128 -128 150 -335 179 -247 36 -274 38 -343 29z"/>
<path d="M1773 2560 c-40 -24 -61 -63 -78 -145 -3 -11 -25 -94 -50 -185 -25
-91 -48 -173 -50 -184 -2 -10 -6 -20 -7 -21 -5 -5 -369 91 -364 95 7 7 -155 1
-184 -7 -14 -3 -27 -7 -30 -7 -31 -6 -128 -67 -166 -105 -82 -82 -88 -98 -185
-461 -16 -63 -44 -163 -60 -222 -17 -60 -32 -116 -34 -126 -1 -9 -20 -78 -41
-152 -26 -92 -38 -156 -38 -201 -1 -59 3 -71 34 -117 19 -28 50 -60 70 -71 19
-11 98 -35 175 -54 193 -49 177 -48 180 -6 10 134 96 268 215 333 113 62 287
66 377 10 20 -13 22 -11 32 19 10 33 120 449 126 478 2 10 20 79 40 155 68
255 106 399 116 439 16 59 15 57 59 225 42 157 62 262 50 255 -4 -2 -13 7 -20
20 -15 29 -67 55 -107 55 -15 0 -42 -9 -60 -20z"/>
<path d="M2281 1967 c-6 -15 -13 -39 -15 -52 -4 -23 -62 -242 -111 -425 -13
-47 -42 -157 -65 -245 -23 -88 -54 -207 -70 -265 -25 -94 -41 -155 -44 -170
-1 -3 -14 -53 -30 -112 -23 -86 -27 -117 -22 -162 9 -72 55 -140 119 -180 42
-26 59 -30 120 -30 82 -1 125 16 180 69 32 31 69 108 81 167 3 13 11 48 20 78
22 84 157 594 225 855 16 61 32 117 35 125 5 12 -31 41 -140 115 -140 95 -245
191 -264 239 -8 20 -8 20 -19 -7z"/>
<path d="M1277 786 c-101 -37 -166 -143 -153 -251 14 -117 94 -197 213 -212
128 -16 253 90 259 219 5 99 -30 167 -113 222 -50 33 -148 44 -206 22z"/>
</g>
</svg>
